<svg width="25" height="25" viewBox="0 0 25 25" fill="none" xmlns="http://www.w3.org/2000/svg">
    <!-- social -->
    <g id="dribble" opacity="0.5">
        <path d="M22.9167 12.5C22.9184 13.8721 22.6483 15.2309 22.1218 16.4979C21.5954 17.7649 20.823 18.915 19.8495 19.8818C18.8839 20.8457 17.7378 21.6099 16.4767 22.1306C15.2157 22.6514 13.8644 22.9185 12.5 22.9167C6.74688 22.9167 2.08334 18.2532 2.08334 12.5C2.0797 9.8291 3.10567 7.25951 4.94792 5.32557C5.91997 4.29984 7.09111 3.48325 8.38965 2.92577C9.6882 2.36829 11.0868 2.08165 12.5 2.08338C13.8644 2.08162 15.2157 2.34874 16.4767 2.86948C17.7378 3.39023 18.8839 4.15438 19.8495 5.11828C20.823 6.08506 21.5954 7.23519 22.1218 8.50221C22.6483 9.76923 22.9184 11.128 22.9167 12.5V12.5Z" stroke="white" stroke-width="2" stroke-linecap="round" stroke-linejoin="round"/>
        <path d="M22.9167 12.5001C21.3969 12.5001 17.2042 11.9272 13.4516 13.5746C9.37501 15.3647 6.42345 18.1412 5.13699 19.8683" stroke="white" stroke-width="2" stroke-linecap="round" stroke-linejoin="round"/>
        <path d="M8.59375 2.8407C10.224 4.34539 13.7812 8.17664 15.1042 11.9792C16.4271 15.7824 16.9167 20.4584 17.2188 21.7891" stroke="white" stroke-width="2" stroke-linecap="round" stroke-linejoin="round"/>
        <path d="M2.16354 11.198C4.13125 11.3167 9.34011 11.4235 12.6734 10.0001C16.0068 8.57664 18.875 5.95841 19.8589 5.12769" stroke="white" stroke-width="2" stroke-linecap="round" stroke-linejoin="round"/>
        <path d="M2.86458 16.4652C3.78245 18.687 5.43786 20.5247 7.55208 21.6689" stroke="white" stroke-width="2" stroke-linecap="round" stroke-linejoin="round"/>
        <path d="M2.08334 12.5C2.0797 9.82909 3.10567 7.2595 4.94792 5.32556" stroke="white" stroke-width="2" stroke-linecap="round" stroke-linejoin="round"/>
        <path d="M12.5 2.08338C11.0869 2.08165 9.6882 2.36829 8.38966 2.92577C7.09111 3.48325 5.91997 4.29984 4.94792 5.32557" stroke="white" stroke-width="2" stroke-linecap="round" stroke-linejoin="round"/>
        <path d="M16.6667 2.95007C17.8529 3.4691 18.9322 4.20436 19.8495 5.1183C20.823 6.08509 21.5954 7.23522 22.1218 8.50223C22.6483 9.76925 22.9184 11.128 22.9167 12.5001C22.9167 13.7829 22.6849 15.011 22.2604 16.1459" stroke="white" stroke-width="2" stroke-linecap="round" stroke-linejoin="round"/>
        <path d="M12.5 22.9167C13.8644 22.9185 15.2157 22.6514 16.4767 22.1306C17.7378 21.6099 18.8839 20.8457 19.8495 19.8818" stroke="white" stroke-width="2" stroke-linecap="round" stroke-linejoin="round"/>
    </g>

    <g id="gitHub">
        <path fill-rule="evenodd" clip-rule="evenodd" d="M12.5 0C5.59375 0 0 5.59375 0 12.5C0 18.0312 3.57812 22.7031 8.54688 24.3594C9.17188 24.4688 9.40625 24.0938 9.40625 23.7656C9.40625 23.4688 9.39062 22.4844 9.39062 21.4375C6.25 22.0156 5.4375 20.6719 5.1875 19.9688C5.04688 19.6094 4.4375 18.5 3.90625 18.2031C3.46875 17.9688 2.84375 17.3906 3.89062 17.375C4.875 17.3594 5.57812 18.2812 5.8125 18.6562C6.9375 20.5469 8.73437 20.0156 9.45312 19.6875C9.5625 18.875 9.89062 18.3281 10.25 18.0156C7.46875 17.7031 4.5625 16.625 4.5625 11.8437C4.5625 10.4844 5.04688 9.35938 5.84375 8.48438C5.71875 8.17188 5.28125 6.89062 5.96875 5.17188C5.96875 5.17188 7.01562 4.84375 9.40625 6.45312C10.4062 6.17188 11.4687 6.03125 12.5312 6.03125C13.5937 6.03125 14.6562 6.17188 15.6562 6.45312C18.0469 4.82812 19.0938 5.17188 19.0938 5.17188C19.7812 6.89062 19.3438 8.17188 19.2188 8.48438C20.0156 9.35938 20.5 10.4687 20.5 11.8437C20.5 16.6406 17.5781 17.7031 14.7969 18.0156C15.25 18.4062 15.6406 19.1562 15.6406 20.3281C15.6406 22 15.625 23.3438 15.625 23.7656C15.625 24.0938 15.8594 24.4844 16.4844 24.3594C18.9658 23.5216 21.1221 21.9268 22.6496 19.7993C24.1772 17.6719 24.9993 15.119 25 12.5C25 5.59375 19.4062 0 12.5 0Z" fill="white" fill-opacity="0.5"/>
    </g>

    <g id="linkedin">
        <path d="M22.874 14.2907V21.9771H18.4177V14.8053C18.4177 13.0032 17.7729 11.774 16.1604 11.774C14.9292 11.774 14.1958 12.6032 13.874 13.4042C13.7562 13.6907 13.726 14.0896 13.726 14.4907V21.9771H9.26771C9.26771 21.9771 9.32812 9.83131 9.26771 8.57193H13.726V10.4719L13.6969 10.5157H13.726V10.4719C14.3177 9.56047 15.375 8.25735 17.7427 8.25735C20.675 8.25735 22.874 10.174 22.874 14.2907ZM4.60521 2.11047C3.08125 2.11047 2.08333 3.11047 2.08333 4.4261C2.08333 5.71256 3.05208 6.74276 4.54687 6.74276H4.57604C6.13125 6.74276 7.09687 5.71256 7.09687 4.4261C7.06979 3.11047 6.13229 2.11047 4.60625 2.11047H4.60521ZM2.34792 21.9771H6.80417V8.57193H2.34792V21.9771Z" fill="white" fill-opacity="0.5"/>
    </g>

    <g id="upwork">
        <path d="M19.3359 13.7047C18.1883 13.7047 17.1102 13.2203 16.1336 12.4274L16.3695 11.3086L16.3773 11.2641C16.593 10.0758 17.2602 8.07815 19.3352 8.07815C20.0818 8.07836 20.7979 8.37507 21.3259 8.90306C21.8539 9.43104 22.1506 10.1471 22.1508 10.8938C22.1495 11.6398 21.8524 12.3548 21.3245 12.882C20.7966 13.4091 20.0812 13.7053 19.3352 13.7055L19.3359 13.7047ZM19.3359 5.22893C16.6914 5.22893 14.6359 6.94612 13.8023 9.77424C12.5328 7.86565 11.5641 5.57112 11.0031 3.63831H8.15469V11.0477C8.15324 11.7509 7.87325 12.4249 7.37601 12.9221C6.87876 13.4194 6.20477 13.6994 5.50156 13.7008C4.79854 13.6987 4.12491 13.4186 3.6278 12.9214C3.13069 12.4243 2.8505 11.7507 2.84844 11.0477V3.63831H0V11.0477C0 14.0828 2.46953 16.5696 5.50156 16.5696C8.53672 16.5696 11.0031 14.0836 11.0031 11.0477V9.80627C11.5562 10.9578 12.2359 12.1297 13.0617 13.1633L11.3164 21.3625H14.2297L15.4953 15.4133C16.6023 16.1211 17.8758 16.5688 19.3367 16.5688C22.4617 16.5688 25.0008 14.0133 25.0008 10.8922C25.0008 7.76721 22.4617 5.22815 19.3367 5.22815L19.3359 5.22893Z" fill="white" fill-opacity="0.5"/>
    </g>

    <g id="youTube">
        <path d="M24.4793 6.77812C24.3377 6.27316 24.062 5.81598 23.6814 5.45521C23.29 5.08333 22.8103 4.81733 22.2876 4.68229C20.3314 4.16666 12.4939 4.16666 12.4939 4.16666C9.22652 4.12949 5.95995 4.29299 2.71263 4.65625C2.18991 4.80126 1.71113 5.07321 1.31888 5.44791C0.933462 5.81875 0.654296 6.27604 0.508462 6.77708C0.158142 8.66431 -0.0120669 10.5806 0.000128869 12.5C-0.0123711 14.4177 0.157421 16.3333 0.508462 18.2229C0.651171 18.7219 0.929296 19.1771 1.31575 19.5448C1.70221 19.9125 2.18346 20.1781 2.71263 20.3187C4.69492 20.8333 12.4939 20.8333 12.4939 20.8333C15.7654 20.8706 19.0361 20.7071 22.2876 20.3437C22.8103 20.2087 23.29 19.9427 23.6814 19.5708C24.0668 19.2031 24.3408 18.7458 24.4783 18.2479C24.8377 16.3614 25.0125 14.4444 25.0001 12.524C25.0272 10.5954 24.8526 8.66934 24.4793 6.77708V6.77812ZM10.0022 16.0667V8.93437L16.523 12.501L10.0022 16.0667Z" fill="white" fill-opacity="0.5"/>
    </g>

    <!-- logo -->
    <g id="logo">
        <path fill-rule="evenodd" clip-rule="evenodd" d="M18.3125 42.0645L27.2623 6.6875L31.4375 7.87241L22.4878 43.3125L18.3125 42.0645Z" fill="#943ff3"/>
        <path fill-rule="evenodd" clip-rule="evenodd" d="M13.5025 12.6875L16.5625 15.9278L7.99501 25.0001L16.5625 34.0721L13.5025 37.3125L1.875 25.0001L13.5025 12.6875Z" fill="#943ff3"/>
        <path fill-rule="evenodd" clip-rule="evenodd" d="M36.4976 12.6875L33.4375 15.9278L42.0051 25.0001L33.4375 34.0721L36.4976 37.3125L48.125 25.0001L36.4976 12.6875Z" fill="#943ff3"/>
    </g>

    <!-- work platform -->
    <g id="behance">
        <path d="M14.7098 0C16.0878 0 17.3599 0.107063 18.5259 0.424013C19.6919 0.63602 20.646 1.06003 21.494 1.59005C22.342 2.12007 22.978 2.86209 23.402 3.81718C23.8261 4.77015 24.0381 5.93725 24.0381 7.20929C24.0381 8.69227 23.7201 9.96537 22.978 10.9194C22.342 11.8724 21.282 12.7204 20.0099 13.3564C21.812 13.8864 23.19 14.8394 24.0381 16.1125C24.8861 17.3845 25.4161 18.9746 25.4161 20.7767C25.4161 22.2596 25.0981 23.5327 24.5681 24.5928C24.0381 25.6528 23.19 26.6068 22.236 27.2429C21.282 27.8799 20.1159 28.41 18.8439 28.7269C17.5719 29.0438 16.2998 29.2569 15.0278 29.2569H0.823334V0H14.7098ZM13.8617 11.8724C15.0278 11.8724 15.9818 11.5544 16.7238 11.0243C17.4659 10.4943 17.7839 9.5403 17.7839 8.37426C17.7839 7.73824 17.6779 7.10222 17.4659 6.67821C17.2538 6.2542 16.9358 5.93619 16.5118 5.61818C16.0878 5.40617 15.6638 5.19416 15.1338 5.08816C14.6038 4.98216 14.0737 4.98216 13.4377 4.98216H7.28954V11.8724H13.8617ZM14.1798 24.3808C14.8158 24.3808 15.4518 24.2748 15.9818 24.1698C16.5118 24.0628 17.0418 23.8507 17.4659 23.5327C17.8899 23.2147 18.2079 22.8967 18.5259 22.3667C18.7379 21.8367 18.9499 21.1996 18.9499 20.4586C18.9499 18.9746 18.5259 17.9146 17.6779 17.1715C16.8298 16.5355 15.6638 16.2185 14.2858 16.2185H7.28954V24.3808H14.1798ZM34.6384 24.2748C35.4864 25.1228 36.7585 25.5468 38.4545 25.5468C39.6205 25.5468 40.6806 25.2288 41.5286 24.6988C42.3766 24.0617 42.9067 23.4267 43.1187 22.7897H48.3128C47.4648 25.3337 46.1928 27.1368 44.4967 28.3018C42.8006 29.3619 40.7866 29.9989 38.3485 29.9989C36.6525 29.9989 35.1684 29.6799 33.7904 29.1499C32.4123 28.6198 31.3523 27.8789 30.3983 26.8188C29.4442 25.8648 28.7022 24.6988 28.2782 23.3197C27.7482 21.9416 27.5362 20.4586 27.5362 18.7615C27.5362 17.1715 27.7482 15.6885 28.2782 14.3094C28.8082 12.9313 29.5502 11.7664 30.5043 10.7063C31.4583 9.75231 32.6243 8.90428 33.8964 8.37426C35.2744 7.84425 36.6525 7.52624 38.3485 7.52624C40.1506 7.52624 41.7406 7.84425 43.1187 8.58627C44.4967 9.32829 45.5567 10.1763 46.4048 11.4484C47.2528 12.6144 47.8888 13.9914 48.3128 15.4765C48.5248 16.9605 48.6308 18.4446 48.5248 20.1406H33.1543C33.1543 21.8367 33.7904 23.4267 34.6384 24.2748ZM41.3166 13.1444C40.5746 12.4024 39.4085 11.9784 38.0305 11.9784C37.0765 11.9784 36.3344 12.1893 35.6984 12.5084C35.0624 12.8264 34.6384 13.2494 34.2144 13.6744C33.7904 14.0995 33.5784 14.6285 33.4724 15.1585C33.3664 15.6885 33.2603 16.1114 33.2603 16.5365H42.8006C42.5886 14.9465 42.0586 13.8864 41.3166 13.1444ZM56.7931 0V11.0243H56.8991C57.6411 9.75231 58.5951 8.90428 59.7612 8.37426C60.9272 7.84425 61.9872 7.52624 63.1533 7.52624C64.7433 7.52624 66.0154 7.73824 66.9694 8.16226C67.9234 8.58627 68.7715 9.22229 69.3015 9.96431C69.8315 10.7063 70.2555 11.6604 70.4675 12.7204C70.6795 13.7804 70.7855 14.9475 70.7855 16.3245V29.3629H64.9553V17.3845C64.9553 15.5825 64.6373 14.3104 64.1073 13.4624C63.5773 12.6144 62.6233 12.1904 61.2452 12.1904C59.6552 12.1904 58.4891 12.7204 57.8531 13.5695C57.1111 14.5225 56.7931 16.1125 56.7931 18.2326V29.3629H50.9629V0H56.7931ZM75.0257 11.2364C75.6617 10.2823 76.4037 9.6463 77.3577 9.00922C78.3118 8.47921 79.3718 8.05625 80.5378 7.84319C81.7039 7.63118 82.8688 7.52518 84.0359 7.52518C85.096 7.52518 86.156 7.63118 87.3231 7.73718C88.3831 7.84319 89.4432 8.16014 90.2901 8.58521C91.2442 9.00816 91.8802 9.64524 92.5173 10.3873C93.0462 11.1303 93.3642 12.1904 93.3642 13.4624V24.5928C93.3642 25.5468 93.4702 26.5008 93.5762 27.3499C93.6833 28.1979 93.9992 28.94 94.3183 29.3629H88.3821C88.169 29.1509 88.063 28.7269 87.9581 28.41C87.8521 28.0909 87.8521 27.6679 87.8521 27.3499C86.898 28.3029 85.838 28.94 84.566 29.3629C83.2939 29.7869 82.0219 29.8929 80.7498 29.8929C79.6898 29.8929 78.8418 29.7869 77.8877 29.47C77.0397 29.258 76.2977 28.8329 75.5557 28.3029C74.9197 27.7729 74.3896 27.1369 73.9656 26.2899C73.6476 25.4408 73.4356 24.5928 73.4356 23.4267C73.4356 22.2596 73.6476 21.1996 74.0716 20.4586C74.4956 19.7166 75.0257 19.0806 75.6617 18.5506C76.2977 18.1276 77.1457 17.7026 77.9938 17.4905C78.8418 17.2796 79.6898 17.0676 80.6438 16.9605L83.1879 16.6425C84.0359 16.5365 84.778 16.4305 85.414 16.3245C86.05 16.1125 86.58 15.9005 87.004 15.5825C87.428 15.2645 87.534 14.8405 87.534 14.2044C87.534 13.5684 87.428 13.0384 87.216 12.7204C87.004 12.4024 86.686 12.0844 86.368 11.8724C86.0489 11.6604 85.626 11.5544 85.202 11.4494C84.778 11.3424 84.2479 11.3424 83.7179 11.3424C82.5519 11.3424 81.7039 11.5544 81.0678 12.0844C80.4318 12.6144 80.0078 13.4624 79.9018 14.5225H74.0716C74.0716 13.2504 74.4956 12.0844 75.0257 11.2364ZM86.579 19.5046C86.262 19.6106 85.838 19.7166 85.4129 19.8226C84.9889 19.9297 84.5649 19.9297 84.0349 20.0346C83.6119 20.1406 83.0819 20.1406 82.6568 20.2466L81.3848 20.5646C80.9608 20.6706 80.5368 20.8827 80.3248 21.0947C80.0068 21.3067 79.7948 21.6247 79.5827 21.9427C79.2658 22.3667 79.2658 22.7907 79.2658 23.3207C79.2658 23.8507 79.3718 24.2748 79.5838 24.5928C79.7958 24.9108 80.0078 25.2299 80.3258 25.4408C80.6438 25.6528 81.0678 25.7599 81.4919 25.8648C81.9159 25.9698 82.3388 25.9708 82.8688 25.9708C84.0359 25.9708 84.8829 25.7599 85.5189 25.4408C86.156 25.0178 86.579 24.5928 86.898 24.0628C87.216 23.5327 87.428 23.0027 87.428 22.4727C87.534 21.9427 87.534 21.5197 87.534 21.2007V18.9746C87.216 19.1866 86.898 19.3997 86.579 19.5046ZM102.164 8.05625V11.0243H102.27C103.011 9.75231 103.966 8.90428 105.131 8.37426C106.298 7.84425 107.57 7.52624 108.735 7.52624C110.325 7.52624 111.597 7.73824 112.551 8.16226C113.611 8.58627 114.354 9.22229 114.884 9.96431C115.414 10.7063 115.837 11.6604 116.155 12.7204C116.367 13.7804 116.474 14.9475 116.474 16.3245V29.3629H110.644V17.3845C110.644 15.5825 110.325 14.3104 109.795 13.4624C109.265 12.6144 108.311 12.0844 106.827 12.0844C105.237 12.0844 104.07 12.7204 103.329 13.6744C102.587 14.6285 102.269 16.2185 102.269 18.3386V29.4689H96.4383V8.05625H102.164ZM129.51 11.8724C128.557 11.8724 127.814 12.0844 127.179 12.5095C126.543 12.9324 126.013 13.4624 125.589 14.2055C125.165 14.8415 124.953 15.5835 124.74 16.4316C124.529 17.2807 124.529 18.0216 124.529 18.8707C124.529 19.6117 124.635 20.4608 124.74 21.2017C124.953 22.0508 125.164 22.6858 125.589 23.3218C126.013 23.9589 126.437 24.4889 127.073 24.9118C127.709 25.3359 128.45 25.5489 129.404 25.5489C130.783 25.5489 131.843 25.1249 132.69 24.3818C133.433 23.6409 133.964 22.5808 134.07 21.2017H139.688C139.265 24.0638 138.205 26.1839 136.401 27.669C134.6 29.152 132.267 29.8951 129.404 29.8951C127.814 29.8951 126.33 29.577 125.058 29.047C123.679 28.517 122.619 27.775 121.666 26.821C120.713 25.8669 119.969 24.7009 119.439 23.4289C118.909 22.0508 118.698 20.6717 118.698 19.0817C118.698 17.3856 118.909 15.9016 119.439 14.5235C119.969 13.1455 120.606 11.8734 121.559 10.8134C122.513 9.75337 123.679 9.01134 124.952 8.37532C126.329 7.84531 127.813 7.5273 129.509 7.5273C130.782 7.5273 131.948 7.7393 133.113 8.05731C134.278 8.37532 135.339 8.90534 136.187 9.5403C137.141 10.1774 137.884 11.0243 138.414 12.0844C138.944 13.0384 139.263 14.3104 139.368 15.6885H133.643C133.435 13.1444 132.055 11.8724 129.51 11.8724ZM31.9883 2.01406H43.8607V4.87615H31.9883V2.01406ZM148.486 24.2748C149.335 25.1228 150.712 25.5468 152.302 25.5468C153.469 25.5468 154.529 25.2288 155.376 24.6988C156.225 24.0617 156.755 23.4267 156.966 22.7897H162.055C161.206 25.3337 159.935 27.1368 158.238 28.3018C156.541 29.3619 154.528 29.9989 152.09 29.9989C150.394 29.9989 148.91 29.6799 147.531 29.1499C146.226 28.6634 145.061 27.8628 144.14 26.8188C143.186 25.8648 142.444 24.6988 142.02 23.3197C141.49 21.9416 141.278 20.4586 141.278 18.7615C141.278 17.1715 141.49 15.6885 142.02 14.3094C142.53 12.9799 143.285 11.7578 144.246 10.7063C145.2 9.75231 146.366 8.90428 147.638 8.37426C149.016 7.84425 150.5 7.52624 152.09 7.52624C153.891 7.52624 155.481 7.84425 156.754 8.58627C158.131 9.32829 159.191 10.1763 160.04 11.4484C160.888 12.6144 161.524 13.9914 161.948 15.4765C162.371 16.9595 162.478 18.5495 162.371 20.2466H147.001C147.001 21.8367 147.638 23.4267 148.486 24.2748ZM155.27 13.1444C154.528 12.4024 153.361 11.9784 151.984 11.9784C151.03 11.9784 150.287 12.1893 149.651 12.5084C149.015 12.8264 148.485 13.2494 148.168 13.6744C147.851 14.0995 147.531 14.6285 147.426 15.1585C147.321 15.6885 147.215 16.1114 147.215 16.5365H156.755C156.436 14.9465 155.906 13.8864 155.27 13.1444Z" fill="white" fill-opacity="0.5"/>
    </g>

    <g id="medium">
        <path d="M77.5699 26.6515C77.5699 27.1795 77.5699 27.2995 77.9259 27.6235L79.9197 29.5915V29.6755H71.0784V25.8955C70.1885 28.3868 67.8351 30.0342 65.2158 29.9995C60.6705 29.9995 57.3713 26.3995 57.3713 19.7756C57.3713 13.5718 60.9316 9.43183 65.9278 9.43183C68.1425 9.29086 70.2034 10.5806 71.0665 12.6478V4.30792C71.1322 3.92172 70.9758 3.53122 70.663 3.29994L68.7642 1.45197V1.36798L77.5699 0.323994V26.6515ZM71.0784 25.4515V13.0078C70.4376 12.203 69.4653 11.7425 68.4437 11.7598C66.2957 11.7598 64.2189 13.7278 64.2189 19.5716C64.2189 25.0435 66.0109 26.9755 68.242 26.9755C69.3732 26.9521 70.4261 26.3864 71.0784 25.4515ZM83.4325 29.6755V12.8758C83.4891 12.5006 83.3553 12.1218 83.0765 11.8678L81.1183 9.82782V9.74382H89.9597V26.7835C89.9597 27.3115 89.9597 27.4315 90.3157 27.7555L92.262 29.6035V29.6875L83.4325 29.6755ZM83.1121 3.59994C83.1121 1.61175 84.7061 0 86.6724 0C88.6386 0 90.2326 1.61175 90.2326 3.59994C90.2326 5.58812 88.6386 7.19987 86.6724 7.19987C84.7061 7.19987 83.1121 5.58812 83.1121 3.59994ZM113.814 26.6155C113.814 27.1435 113.814 27.2995 114.17 27.6235L116.163 29.5915V29.6755H107.274V25.3675C106.465 28.0914 103.999 29.9676 101.186 29.9995C97.2464 29.9995 95.1339 27.0955 95.1339 21.5996C95.1339 18.9477 95.1339 16.0437 95.217 12.7798C95.2821 12.4144 95.1458 12.0421 94.861 11.8078L92.9028 9.82782V9.74382H101.673C101.673 9.86382 101.673 20.1716 101.673 20.6996C101.673 24.2996 102.195 26.6995 104.426 26.6995C105.624 26.6238 106.704 25.9425 107.298 24.8876V12.8878C107.355 12.5126 107.221 12.1338 106.942 11.8798L104.972 9.82782V9.74382H113.814V26.6155ZM143.91 29.6755C143.91 29.0275 144.028 20.7716 144.028 18.8757C144.028 15.2757 143.471 12.7918 140.967 12.7918C139.707 12.8311 138.54 13.4722 137.822 14.5197C138.073 15.6416 138.192 16.7895 138.178 17.9397C138.178 20.4356 138.095 23.6156 138.059 26.7955C137.994 27.1609 138.13 27.5332 138.415 27.7675L140.409 29.6155V29.6995H131.484C131.484 29.0995 131.603 20.7956 131.603 18.8997C131.603 15.2397 131.045 12.8158 128.577 12.8158C127.36 12.8599 126.25 13.5298 125.634 14.5917V26.8315C125.634 27.3595 125.634 27.4795 125.99 27.8035L127.936 29.6515V29.7355H119.106V12.9358C119.163 12.5606 119.029 12.1818 118.75 11.9278L116.792 9.82782V9.74382H125.634V14.0157C126.453 11.1953 129.066 9.30056 131.971 9.41983C134.914 9.41983 136.908 11.0758 137.75 14.2197C138.686 11.3202 141.38 9.37452 144.396 9.41983C148.336 9.41983 150.567 12.3598 150.567 17.9157C150.567 20.5676 150.484 23.5916 150.449 26.7715C150.38 27.1479 150.538 27.5298 150.852 27.7435L152.799 29.5915V29.6755H143.91ZM32.841 27.0595L35.4637 29.5915V29.6755H22.1602V29.5915L24.8304 27.0595C25.1152 26.8252 25.2515 26.4529 25.1864 26.0875V9.89982C25.1864 9.21583 25.1864 8.29185 25.3051 7.49987L16.3332 29.9995H16.2264L6.93406 9.29983C6.73231 8.78384 6.67298 8.74784 6.54243 8.39985V21.9716C6.43118 22.8799 6.58375 23.8014 6.98153 24.6236L10.7198 29.5915V29.6755H0.798523V29.5915L4.53681 24.6116C4.93165 23.7927 5.08413 22.876 4.97591 21.9716V6.97187C5.0367 6.23332 4.81592 5.49922 4.3588 4.91991L1.71233 1.45197V1.36798H11.2064L19.1577 18.8997L26.1595 1.36798H35.4519V1.45197L32.841 4.39192C32.5281 4.6232 32.3718 5.0137 32.4375 5.3999V26.0875C32.3683 26.4639 32.5269 26.8458 32.841 27.0595ZM43.2489 18.9477V19.0317C43.2489 24.1676 45.8716 26.2315 48.9453 26.2315C51.5119 26.3201 53.8872 24.8649 54.9978 22.5236H55.0808C54.0128 27.5995 50.9035 29.9995 46.2514 29.9995C41.2314 29.9995 36.4962 26.9395 36.4962 19.8476C36.4962 12.3958 41.2432 9.41983 46.4887 9.41983C50.7136 9.41983 55.2114 11.4358 55.2114 17.9157C55.2114 18.0357 55.2114 18.4677 55.2114 18.9477H43.2489ZM43.2489 17.9157H49.0996C49.0996 17.3877 49.0996 17.0277 49.0996 16.8717C49.0996 11.5918 48.0196 10.1878 46.3938 10.1878C44.4238 10.1878 43.2251 12.2878 43.2251 17.9157H43.2489Z" fill="white" fill-opacity="0.5"/>
    </g>

    <g id="linkedinFull">
        <path d="M121.75 25.9057C121.213 25.9108 120.701 26.1282 120.324 26.5102C119.948 26.8923 119.738 27.4078 119.74 27.9442C119.743 28.4806 119.958 28.9942 120.338 29.3726C120.718 29.751 121.233 29.9634 121.769 29.9634C122.306 29.9634 122.82 29.751 123.201 29.3726C123.581 28.9942 123.796 28.4806 123.798 27.9442C123.801 27.4078 123.591 26.8923 123.214 26.5102C122.838 26.1282 122.325 25.9108 121.789 25.9057H121.75ZM121.75 29.7311C121.398 29.737 121.052 29.6384 120.757 29.4478C120.461 29.2572 120.228 28.9832 120.088 28.6604C119.948 28.3376 119.907 27.9805 119.97 27.6343C120.033 27.2881 120.197 26.9683 120.441 26.7154C120.686 26.4625 121 26.2878 121.344 26.2134C121.688 26.139 122.046 26.1683 122.374 26.2975C122.701 26.4267 122.982 26.6501 123.183 26.9394C123.383 27.2286 123.493 27.5708 123.499 27.9226V27.9525C123.509 28.414 123.335 28.8606 123.016 29.1939C122.696 29.5273 122.258 29.7202 121.796 29.7302H121.75L121.75 29.7311ZM113.962 25.3514H109.553V18.4472C109.553 16.8009 109.524 14.6815 107.26 14.6815C104.964 14.6815 104.613 16.4753 104.613 18.3274V25.3509H100.204V11.1532H104.436V13.0935H104.495C104.919 12.3693 105.531 11.7735 106.266 11.3697C107.002 10.9658 107.833 10.7689 108.671 10.8001C113.14 10.8001 113.964 13.7392 113.964 17.5628L113.962 25.3514ZM95.2295 9.21248C94.7235 9.21257 94.2288 9.06261 93.808 8.78157C93.3872 8.50052 93.0593 8.10101 92.8655 7.63356C92.6718 7.16611 92.6211 6.65171 92.7197 6.15541C92.8183 5.65911 93.0619 5.20321 93.4196 4.84534C93.7774 4.48748 94.2332 4.24374 94.7294 4.14493C95.2257 4.04612 95.7401 4.0967 96.2076 4.29025C96.6752 4.48381 97.0748 4.81165 97.356 5.23233C97.6372 5.653 97.7873 6.14762 97.7874 6.65362C97.7875 6.9896 97.7214 7.32229 97.5928 7.63271C97.4643 7.94314 97.2759 8.22521 97.0384 8.46282C96.8009 8.70043 96.5189 8.88893 96.2085 9.01756C95.8981 9.14619 95.5655 9.21242 95.2295 9.21248ZM97.4338 25.3514H93.0206V11.1532H97.4338V25.3514ZM116.16 0.00159915H90.8052C90.2297 -0.00489506 89.6752 0.217345 89.2635 0.619485C88.8518 1.02162 88.6166 1.57076 88.6096 2.14623V27.6058C88.6164 28.1815 88.8514 28.731 89.2631 29.1336C89.6748 29.5361 90.2294 29.7588 90.8052 29.7527H116.16C116.736 29.7599 117.293 29.5379 117.706 29.1353C118.119 28.7328 118.356 28.1827 118.364 27.6058V2.14439C118.356 1.56778 118.119 1.01802 117.706 0.615893C117.292 0.213763 116.736 -0.00784255 116.16 -0.00023779V0.00159915ZM76.6102 14.58C74.4059 14.58 73.0833 16.0519 73.0833 18.1965C73.0833 20.3411 74.4054 21.8144 76.6102 21.8144C78.815 21.8144 80.1404 20.3448 80.1404 18.1965C80.1404 16.0482 78.8173 14.58 76.6102 14.58ZM84.1991 25.3431H80.1404V23.4603H80.0802C79.571 24.1451 78.9106 24.7032 78.1504 25.0909C77.3901 25.4787 76.5506 25.6857 75.6973 25.6958C71.4613 25.6958 68.671 22.6387 68.671 18.3154C68.671 14.3449 71.1403 10.699 75.1995 10.699C77.024 10.699 78.7282 11.1982 79.728 12.5819H79.7859V4.39786H84.1986L84.1991 25.3431ZM63.0104 16.5956C63.0189 16.2379 62.9546 15.8823 62.8216 15.5502C62.6885 15.2181 62.4894 14.9164 62.2363 14.6635C61.9833 14.4106 61.6815 14.2117 61.3493 14.0789C61.0171 13.9461 60.6614 13.882 60.3037 13.8907C59.5334 13.8428 58.7751 14.0995 58.1923 14.6055C57.6095 15.1115 57.2489 15.8262 57.1883 16.5956H63.0104ZM66.7449 22.8871C66.0124 23.7755 65.0913 24.4899 64.0486 24.9784C63.0059 25.467 61.8676 25.7175 60.7161 25.7119C56.3074 25.7119 52.7778 22.7691 52.7778 18.2121C52.7778 13.6551 56.307 10.7137 60.7161 10.7137C64.8368 10.7137 67.4209 13.6528 67.4209 18.2121V19.5944H57.1883C57.3157 20.3784 57.7221 21.0898 58.3327 21.5978C58.9432 22.1057 59.7168 22.3759 60.5108 22.3585C61.1383 22.3547 61.7549 22.1939 62.3044 21.8909C62.8539 21.5878 63.3189 21.1522 63.6571 20.6236L66.7449 22.8871ZM22.9183 11.1495H27.152V13.0898H27.2121C27.635 12.3653 28.2467 11.7693 28.982 11.3653C29.7172 10.9614 30.5483 10.7648 31.3866 10.7964C35.8572 10.7964 36.6802 13.7378 36.6802 17.5591V25.345H32.2715V18.4422C32.2715 16.7945 32.2412 14.6765 29.9754 14.6765C27.6838 14.6765 27.3302 16.4707 27.3302 18.3223V25.3431H22.9215L22.9183 11.1495ZM38.9158 4.39924H43.3244V16.9203L48.3209 11.1417H53.7261L47.9397 17.7148L53.6044 25.3518H48.0633L43.3832 18.3338H43.3253V25.3509H38.9167L38.9158 4.39924ZM16.0651 11.1482H20.4738V25.3459H16.0651V11.1482ZM18.2695 4.08971C18.7753 4.0898 19.2697 4.23987 19.6902 4.52095C20.1107 4.80202 20.4384 5.20148 20.6319 5.66881C20.8254 6.13613 20.876 6.65034 20.7773 7.14641C20.6785 7.64249 20.4349 8.09814 20.0772 8.45577C19.7196 8.81339 19.2639 9.05692 18.7678 9.15557C18.2717 9.25421 17.7575 9.20354 17.2902 9.00995C16.8229 8.81637 16.4235 8.48857 16.1425 8.068C15.8615 7.64744 15.7115 7.153 15.7115 6.64719C15.7115 6.3113 15.7777 5.9787 15.9062 5.66838C16.0348 5.35806 16.2232 5.07611 16.4607 4.83862C16.6983 4.60113 16.9803 4.41276 17.2906 4.28426C17.6009 4.15576 17.9336 4.08965 18.2695 4.08971ZM0.951233 4.40245H5.54037V21.1186H14.0362V25.3537H0.951233V4.40245ZM122.072 28.0632C122.147 28.0639 122.222 28.0492 122.292 28.0198C122.361 27.9904 122.424 27.9471 122.476 27.8924C122.528 27.8378 122.569 27.773 122.595 27.7021C122.621 27.6312 122.632 27.5558 122.627 27.4804C122.627 27.0671 122.378 26.8696 121.866 26.8696H121.04V29.0335H121.351V28.0903H121.733L121.742 28.1017L122.334 29.0335H122.667L122.029 28.0691L122.072 28.0632ZM121.712 27.8464H121.352V27.1148H121.809C122.045 27.1148 122.314 27.1534 122.314 27.4625C122.314 27.8179 122.041 27.8464 121.71 27.8464" fill="white" fill-opacity="0.5"/>
    </g>

    <g id="dribbleFull">
        <path d="M37.2695 11.9814C38.6647 11.9814 39.7957 10.85 39.7957 9.45451C39.7957 8.0588 38.6647 6.92761 37.2695 6.92761C35.8742 6.92761 34.7433 8.0588 34.7433 9.45451C34.7433 10.85 35.8742 11.9814 37.2695 11.9814ZM120.641 20.615C120.257 20.3447 119.96 20.3 119.714 20.8247C115.471 30.0143 108.321 25.4286 109.031 25.8321C110.617 25.1067 114.788 21.7614 114.158 17.1424C113.775 14.3195 111.352 13.0674 108.78 13.5157C104.291 14.2983 102.64 19.1402 103.481 23.4269C103.628 24.1631 103.891 24.7702 104.153 25.365C99.0804 29.4902 97.0659 21.6721 96.8373 20.7378C96.8283 20.6878 100.754 17.4155 101.846 9.61761C102.991 1.44499 100.384 -0.043108 97.7176 0.00332053C92.7842 0.0892729 91.4511 10.3967 93.2421 18.9871C93.0921 19.0262 92.394 19.4128 91.2723 19.4562C90.4652 16.9164 87.0164 14.6902 86.1138 15.5481C83.8547 17.694 86.6616 21.8895 88.6366 22.2186C87.4502 29.5259 80.0304 27.7162 81.4116 18.5612C83.8278 14.0743 85.6654 7.40261 85.3376 3.37499C85.2214 1.94903 84.1671 0.0385586 81.7828 0.133321C77.1969 0.314749 76.6983 10.625 77.2359 17.9426C77.2092 17.7624 76.954 18.8317 75.0747 19.3633C74.6302 16.8959 70.6573 14.4193 69.7221 15.61C67.9714 17.8386 71.0054 21.8121 72.4426 22.0893C71.2561 29.3964 63.8366 27.5867 65.2178 18.4317C67.634 13.945 69.4714 7.27332 69.1435 3.2457C69.0273 1.81951 67.9733 -0.0909652 65.5888 0.00355862C61.0028 0.185225 60.5042 10.4955 61.0419 17.8131C61.015 17.63 60.7538 18.7345 58.7978 19.2574C58.7323 16.0562 54.745 14.5883 53.7871 15.6097C52.08 17.4305 54.178 21.1662 56.119 22.0893C54.9326 29.3964 47.513 27.5867 48.8942 18.4317C51.3104 13.945 53.148 7.27332 52.82 3.2457C52.704 1.81951 51.6497 -0.0909652 49.2652 0.00355862C44.6795 0.185225 44.3104 11.0138 44.848 18.3312C43.3376 24.8028 38.2721 32.8848 38.9302 16.695C38.9952 15.5593 39.0661 15.1281 38.5 14.7028C38.0757 14.3724 37.1109 14.5314 36.5835 14.5445C35.9426 14.5702 35.7819 14.9452 35.6402 15.5121C35.3102 16.9759 35.2509 18.395 35.2038 20.3312C35.1728 21.2369 35.1002 21.6595 34.7514 22.8945C34.403 24.1293 32.4157 26.3862 31.3276 26.0088C29.818 25.4897 30.3133 21.2283 30.5961 18.3005C30.8319 15.9867 30.0771 14.9476 28.1433 14.5697C27.0111 14.3338 26.3233 14.37 25.1442 13.9983C24.0292 13.6469 23.7771 11.5378 21.399 12.2407C20.0983 12.6255 20.9345 15.3814 20.6219 17.424C19.085 27.4719 15.8871 27.7478 14.4035 22.8669C21.0852 6.50237 16.3364 0.0509396 13.5566 0.0509396C10.6614 0.0509396 7.35186 2.04523 8.75329 14.8052C8.07186 14.6064 7.86233 14.4993 7.11638 14.4993C2.89757 14.4993 0.0232849 17.9097 0.0232849 22.1169C0.0232849 26.324 2.89781 29.7347 7.11662 29.7347C9.60709 29.7347 11.3557 28.6021 12.68 26.85C13.544 28.0874 14.5961 29.7538 16.5202 29.6788C22.2552 29.4555 23.923 17.6914 24.12 17.0352C24.733 17.1297 25.313 17.3086 25.8792 17.4031C26.8226 17.5448 26.8911 17.9181 26.8697 18.8669C26.6197 26.8678 28.0961 29.6693 31.4452 29.6693C33.3111 29.6693 34.9742 27.8359 36.12 26.525C36.9757 28.2912 38.3392 29.6152 40.1685 29.669C44.6011 29.7793 46.2983 22.7143 46.1435 23.644C46.0221 24.3736 47.5816 29.6293 52.145 29.6483C57.7976 29.6721 58.8483 23.4559 58.9735 22.4147C58.9892 22.2076 58.9961 22.229 58.9735 22.4147L58.9692 22.4778C60.7638 22.144 61.6897 21.1819 61.6897 21.1819C61.6897 21.1819 63.1307 29.745 68.4683 29.6486C74.0111 29.5481 75.0564 23.929 75.1935 22.8333C75.2116 22.5733 75.2223 22.6038 75.1935 22.8333C75.1928 22.844 75.1921 22.8547 75.1914 22.8655C77.323 22.09 77.8838 21.3117 77.8838 21.3117C77.8838 21.3117 79.029 29.7045 84.6623 29.7778C89.6823 29.8436 91.5428 24.7028 91.5538 22.5512C92.4004 22.5602 93.9666 22.0488 93.9299 22.0197C93.9299 22.0197 95.7688 29.3578 100.904 29.7347C103.315 29.9117 105.123 28.3781 106.154 27.6786C108.577 29.6407 116.645 32.1469 121.739 23.51C122.458 22.2705 120.912 20.8062 120.641 20.615ZM6.91305 26.8857C4.45162 26.8857 2.87329 24.6097 2.87329 22.1557C2.87329 19.7019 4.32209 17.4259 6.78352 17.4259C7.89114 17.4259 8.50733 17.5478 9.36995 18.2981C9.52638 18.9145 9.96971 20.3364 10.1854 20.9821C10.4745 21.8462 10.8183 22.5817 11.165 23.3821C10.6697 25.4352 9.04614 26.8857 6.91305 26.8857ZM12.9111 18.3702C12.8088 18.2071 12.8302 18.3074 12.7157 18.1533C12.2645 16.9259 11.395 14.1864 11.2942 11.0747C11.1804 7.55475 11.7671 3.4288 13.4966 3.4288C14.6685 3.4288 15.914 11.7907 12.9109 18.3702H12.9111ZM47.5685 14.7026C47.2909 12.6138 47.2764 3.30189 49.5119 3.55832C50.7461 4.05832 48.7292 12.8452 47.5685 14.7026ZM63.8921 14.7026C63.6145 12.6138 63.6 3.30189 65.8354 3.55832C67.0697 4.05832 65.0528 12.8452 63.8921 14.7026ZM80.0861 14.8324C79.8083 12.7433 79.794 3.43142 82.0292 3.68784C83.2635 4.18784 81.2466 12.975 80.0861 14.8324ZM97.9642 3.01332C100.008 2.80142 99.9238 11.7267 95.8214 17.3614C95.2923 15.3247 94.4811 3.71261 97.9642 3.01308V3.01332ZM106.555 22.2186C105.898 18.9026 107.594 16.7247 109.343 16.4859C109.954 16.3883 110.84 16.7843 111.017 17.5245C111.307 18.9195 110.974 20.9888 107.061 23.6143C107.067 23.6367 106.701 22.9571 106.555 22.2186H106.555Z" fill="white" fill-opacity="0.5"/>
    </g>
</svg>
